<svg width="184" height="71" viewBox="0 0 184 71" fill="none" xmlns="http://www.w3.org/2000/svg">
<path d="M105.342 43.5682C101.635 45.7197 97.1189 46.7955 91.7941 46.7955H85.3235V43.5682H82.0882C81.6501 43.5682 81.271 43.1732 80.9508 42.3832C80.6307 41.5932 80.4706 40.6435 80.4706 39.5341C80.4706 38.7273 80.5885 37.9036 80.8244 37.0632C78.8698 36.996 77.2437 36.8195 75.9462 36.5337C74.6487 36.248 74 35.9034 74 35.5C74 35.0966 74.6487 34.752 75.9462 34.4663C77.2437 34.1805 78.8698 34.004 80.8244 33.9368C80.5885 33.0964 80.4706 32.2727 80.4706 31.4659C80.4706 30.3565 80.6307 29.4068 80.9508 28.6168C81.271 27.8268 81.6501 27.4318 82.0882 27.4318H85.3235V24.2045H91.7941C97.1189 24.2045 101.635 25.2803 105.342 27.4318H161.606C163.021 27.6671 164.816 27.9697 166.989 28.3395C169.163 28.7093 170.52 28.9446 171.059 29.0455C174.058 29.5497 176.586 30.2305 178.642 31.0877C180.697 31.945 182.104 32.7434 182.863 33.483C183.621 34.2225 184 34.8949 184 35.5C184 36.1051 183.621 36.7775 182.863 37.517C182.104 38.2566 180.697 39.055 178.642 39.9123C176.586 40.7695 174.058 41.4503 171.059 41.9545C170.52 42.0554 169.163 42.2907 166.989 42.6605C164.816 43.0303 163.021 43.3329 161.606 43.5682H105.342ZM161.909 30.8608C163.695 32.071 164.588 33.6174 164.588 35.5C164.588 37.3826 163.695 38.929 161.909 40.1392L166.004 41.652C168.295 40.0384 169.441 37.9877 169.441 35.5C169.441 33.0123 168.295 30.9616 166.004 29.348L161.909 30.8608ZM105.595 44.375H156.904C149.591 45.6525 141.907 46.9972 133.853 48.4091C131.932 48.4091 130.028 48.8125 128.141 49.6193C126.253 50.4261 124.855 51.233 123.945 52.0398L122.529 53.25L107.971 67.7727C107.094 68.6468 105.906 69.4032 104.407 70.0419C102.907 70.6806 101.399 71 99.8824 71H95.0294L90.3281 47.6023H91.7941C97.0852 47.6023 101.685 46.5265 105.595 44.375ZM91.7941 23.3977H90.3281L95.0294 0H99.8824C101.433 0 102.949 0.319366 104.432 0.958097C105.915 1.59683 107.094 2.35322 107.971 3.22727L122.529 17.75C122.664 17.8845 122.85 18.061 123.085 18.2795C123.321 18.498 123.835 18.8846 124.627 19.4393C125.419 19.994 126.237 20.4814 127.079 20.9016C127.922 21.3219 128.958 21.7085 130.188 22.0614C131.418 22.4144 132.64 22.5909 133.853 22.5909L156.904 26.625H105.595C101.685 24.4735 97.0852 23.3977 91.7941 23.3977Z" fill="#8FE5FF"/>
<line x1="69" y1="36" x2="1" y2="36" stroke="#8FE5FF" stroke-width="2" stroke-linecap="round"/>
<line x1="69" y1="41" x2="1" y2="41" stroke="#8FE5FF" stroke-width="2" stroke-linecap="round"/>
<line x1="69" y1="31" x2="1" y2="31" stroke="#8FE5FF" stroke-width="2" stroke-linecap="round"/>
</svg>
